<svg id="svg14514" height="512" viewBox="0 0 16.933333 16.933334" width="512" xmlns="http://www.w3.org/2000/svg" xmlns:svg="http://www.w3.org/2000/svg"><g id="layer1" transform="translate(0 -280.067)"><path id="path12815" d="m15.199595 280.5958c-.307505.00003-.616044.11667-.849561.34985l-4.4824162 4.49016c-.0392.0393-.06505.0899-.0739.1447l-.265613 1.58595c-.02971.17897.125399.33408.304374.30437l1.5880162-.26355c.05485-.009.105477-.035.144695-.0744l4.482412-4.49017c.467373-.46668.466861-1.23019 0-1.69705-.233426-.23343-.540507-.34988-.848007-.34985zm.000529.52503c.170749 0 .341371.0664.47439.19947.243599.2436.261443.61145.05891.87592l-.936377-.93431c.120406-.092.261094-.14108.403076-.14108zm-.782912.50746.289905.29042-3.859197 3.8592-.28732-.28784zm.664043.66508.283704.28422-3.855064 3.86178-.286803-.28681zm1.323432 2.80086c0-.43516-.359619-.7953-.794781-.7953h-.529168c-.345037.008-.345037.52151 0 .52917h.529168c.151158 0 .265615.11498.265615.26613v10.58488c0 .15496-.113322.26556-.264608.26458l-13.229659-.002c-.733806-.0001-1.3218829-.58863-1.3218829-1.3224 0-.73376.5881219-1.32395 1.3218829-1.32395s1.3223999.59019 1.3223999 1.32395c-.008.3607.5371729.3607.5291669 0v-10.05465c0-1.01974-.8318238-1.85157-1.8515668-1.85157-1.019744 0-1.85164697.83183-1.85156797 1.85157l.0007938 10.06786c0 1.01661.83997797 1.83825 1.85079197 1.83839h-.000018l13.2286512.002c.435364.002.794784-.35712.794782-.79375zm-14.023433-1.85157c.733761 0 1.3223999.58813 1.3223999 1.32189v8.76122c-.3365309-.34461-.8050527-.56017-1.3223999-.56017-.517335 0-.9853539.21558-1.3218829.56017v-8.76122c0-.73376.5881219-1.32189 1.3218829-1.32189zm2.6468668 1.05627c-.345037.008-.345037.52151 0 .52917h4.761466c.3450382-.008.3450382-.52151 0-.52917zm5.2399892 1.649.784451.78444-.940512.15658zm-4.7108222.46818c-.146928-.00055-.266179.11869-.265618.26562-.0092 2.65751 0 5.28188 0 7.9375.000529.14612.119497.26411.265618.26355h5.0033122c.01445.001.02896.001.04341 0h3.947047c.146322.00085.265548-.11723.266133-.26355v-7.40782c.000793-.14733-.118804-.26698-.266137-.26613h-2.115117c-.353119 0-.353119.52968 0 .52968h1.851569v2.64635h-3.439068v-1.32446c.0016-.14918-.1206-.27008-.26975-.26717-.145313.003-.261359.12184-.259932.26717v1.58801c-.00053.14612.11743.26504.263549.26562h3.705201v3.70313h-3.439068v-2.38073c.0019-.14937-.120393-.2706-.26975-.26768-.145517.003-.261647.12215-.259932.26768v2.38073h-4.4979182v-3.70313h2.909901v1.85157c0 .35312.529682.35312.529682 0v-2.11719c-.000529-.14533-.118215-.26301-.263548-.26355h-.529686v-1.85363c.0019-.14917-.120076-.2703-.269232-.26768-.145515.003-.261649.12215-.259934.26768v1.85363h-2.117183v-3.17603h2.909901c.360688.008.360688-.53717 0-.52917z" font-variant-ligatures="normal" font-variant-position="normal" font-variant-caps="normal" font-variant-numeric="normal" font-variant-alternates="normal" font-feature-settings="normal" text-indent="0" text-align="start" text-decoration-line="none" text-decoration-style="solid" text-decoration-color="rgb(0,0,0)" text-transform="none" text-orientation="mixed" white-space="normal" shape-padding="0" isolation="auto" mix-blend-mode="normal" solid-color="rgb(0,0,0)" solid-opacity="1" vector-effect="none"/></g></svg>