<svg id="Filled" xmlns="http://www.w3.org/2000/svg" viewBox="0 0 512 469.33"><defs><style>.cls-1{fill:#fcb530;}</style></defs><path class="cls-1" d="M511,118.23,331.43,297.81a106.8,106.8,0,0,1-150.86,0L1,118.23c-.3,3.37-1,6.42-1,9.77V384A106.8,106.8,0,0,0,106.67,490.67H405.33A106.8,106.8,0,0,0,512,384V128C512,124.65,511.32,121.6,511,118.23Z" transform="translate(0 -21.33)"/><path class="cls-1" d="M301.27,267.65,496.13,72.77a106.38,106.38,0,0,0-90.8-51.44H106.67a106.38,106.38,0,0,0-90.8,51.44L210.73,267.65A64.15,64.15,0,0,0,301.27,267.65Z" transform="translate(0 -21.33)"/></svg>