<svg id="Capa_1" enable-background="new 0 0 512 512" height="512" viewBox="0 0 512 512" width="512" xmlns="http://www.w3.org/2000/svg"><g><path d="m373.526 427.38h-330.065c-15.294 0-27.803-12.126-28.431-27.268.012-.11.029-.219.036-.33.989-16.293 14.562-29.056 30.9-29.056 4.428 0 8.699.913 12.695 2.714 4.128 1.86 8.847 1.513 12.628-.931 3.734-2.413 5.964-6.513 5.964-10.969v-241.367h70.364c4.143 0 7.5-3.358 7.5-7.5s-3.357-7.5-7.5-7.5h-70.363v-16.949c0-4.407-2.215-8.507-5.925-10.967 0 0 0 0-.001 0-7.538-5-16.302-7.637-25.362-7.637-.092 0-.185 0-.275 0-25.195.15-45.691 21.105-45.691 46.713v282.994c0 .133.013.262.02.393.43 23.595 19.744 42.66 43.441 42.66h330.065c4.143 0 7.5-3.358 7.5-7.5s-3.357-7.5-7.5-7.5zm-358.526-311.047c0-17.386 13.808-31.613 30.778-31.713h.187c5.789 0 11.397 1.598 16.289 4.635v269.443c-5.192-1.973-10.658-2.972-16.287-2.972-11.877 0-22.77 4.544-30.967 12.024z"/><path d="m495.434 105.173h-312.816c-4.143 0-7.5 3.358-7.5 7.5s3.357 7.5 7.5 7.5h312.815c.863 0 1.566.703 1.566 1.566v304.075c0 .864-.703 1.566-1.566 1.566h-86.907c-4.143 0-7.5 3.358-7.5 7.5s3.357 7.5 7.5 7.5h86.907c9.135 0 16.566-7.432 16.566-16.566v-304.075c.001-9.135-7.431-16.566-16.565-16.566z"/><path d="m104.88 175.914v192.157c0 9.099 7.402 16.501 16.501 16.501h323.096c9.099 0 16.5-7.402 16.5-16.501v-192.157c0-9.099-7.401-16.501-16.5-16.501h-323.096c-9.099 0-16.501 7.402-16.501 16.501zm16.501-1.501h131.26v44.38h-23.975c-9.282 0-16.834 7.551-16.834 16.833v5.173c0 8.922 3.043 17.141 8.135 23.693h-100.087v-88.579c0-.827.673-1.5 1.501-1.5zm105.451 66.386v-5.173c0-1.011.822-1.833 1.834-1.833h23.975v30.7h-2.116c-13.065-.001-23.693-10.629-23.693-23.694zm-106.952 127.272v-88.579h130.645 9.616c4.143 0 7.5-3.358 7.5-7.5v-97.58h44.851v195.159h-87.269v-23.975c0-9.282-7.552-16.833-16.834-16.833h-5.173c-21.336 0-38.693 17.357-38.693 38.693v2.116h-43.142c-.828 0-1.501-.674-1.501-1.501zm59.642 1.501v-2.116c0-13.064 10.629-23.693 23.693-23.693h5.173c1.012 0 1.834.823 1.834 1.833v23.975h-30.7zm147.969 0v-30.7h2.115c13.064 0 23.693 10.628 23.693 23.693v5.173c0 1.011-.822 1.834-1.834 1.834zm116.986 0h-76.281c.066-.603.105-1.214.105-1.834v-5.173c0-21.335-17.357-38.693-38.693-38.693h-2.115v-44.379h118.485v88.579c-.001.826-.674 1.5-1.501 1.5zm1.5-193.658v88.579h-118.486v-44.379h23.975c9.282 0 16.834-7.552 16.834-16.834v-5.173c0-8.922-3.043-17.141-8.135-23.693h84.312c.827-.001 1.5.672 1.5 1.5zm-116.371-1.501c13.064 0 23.693 10.629 23.693 23.693v5.173c0 1.011-.822 1.834-1.834 1.834h-23.975v-30.7z"/></g></svg>