<svg id="Capa_1" data-name="Capa 1" xmlns="http://www.w3.org/2000/svg" viewBox="0 0 426.67 512"><defs><style>.cls-1{fill:#fcb530;}</style></defs><path class="cls-1" d="M405.33,179.71V149.33a149.33,149.33,0,0,0-298.66,0v30.38a106.66,106.66,0,0,0-64,97.62v128A106.79,106.79,0,0,0,149.33,512H362.67A106.79,106.79,0,0,0,469.33,405.33v-128A106.66,106.66,0,0,0,405.33,179.71Zm-128,183a21.33,21.33,0,1,1-42.66,0V320a21.33,21.33,0,1,1,42.66,0Zm85.34-192H149.33V149.33a106.67,106.67,0,0,1,213.34,0Z" transform="translate(-42.67)"/></svg>