<svg fill="none" height="512" viewBox="0 0 24 24" width="512" xmlns="http://www.w3.org/2000/svg"><g clip-rule="evenodd" fill="rgb(0,0,0)" fill-rule="evenodd"><path d="m8.75 2c0-.41421.33579-.75.75-.75 3.2919 0 6.1694 1.81991 7.4718 4.48645.4997.99025.7782 2.09412.7782 3.26355 0 4.2172-3.549 7.5674-7.89192 7.7428l-.71106.8563-.55084.6611-.0017.002c-.82619.9844-2.39629.7674-2.93516-.3973l-.0022-.0047-1.25769-2.7689c-1.90375-1.4119-3.14943-3.6055-3.14943-6.0913 0-2.5349 1.28625-4.76385 3.26535-6.17121.33757-.24005.80582-.161 1.04586.17657.24005.33757.161.80581-.17657 1.04586-1.6209 1.15264-2.63464 2.94368-2.63464 4.94878 0 2.0213 1.04021 3.8322 2.68145 4.9865.10933.0769.19613.1816.2514.3033l1.33859 2.9469c.08168.1736.3099.1963.42354.0618.00018-.0002-.00019.0002 0 0l.54885-.6586.92916-1.119c.14249-.1716.35396-.2709.57701-.2709 3.7758 0 6.75-2.8425 6.75-6.25 0-.92866-.2206-1.80308-.6193-2.59158l-.0049-.00973c-1.0388-2.13078-3.3797-3.64869-6.1258-3.64869-.41421 0-.75-.33579-.75-.75z"/><path d="m15.7089 5.60843c.1788-.22901.4738-.33413.7571-.26982 1.7873.4057 3.3387 1.36109 4.4634 2.6733.2696.31449.2332.78797-.0813 1.05753-.3145.26957-.788.23315-1.0575-.08135-.6076-.70883-1.3709-1.29287-2.2462-1.70323.1346.55087.2056 1.12465.2056 1.71514 0 4.2172-3.549 7.5674-7.89192 7.7428l-.29893.36c1.21165 1.2296 2.97385 2.0072 4.94085 2.0072.2229 0 .4342.0991.5767.2705l1.48 1.78.002.0024c.1056.1281.3328.119.4198-.0662l1.3386-2.9469c.0553-.1217.1421-.2264.2514-.3033 1.6413-1.1542 2.6815-2.9652 2.6815-4.9865 0-.4142.3358-.75.75-.75s.75.3358.75.75c0 2.4858-1.2457 4.6794-3.1494 6.0913l-1.2599 2.7736c-.5333 1.1527-2.1039 1.4035-2.9382.3937-.0004-.0005-.0008-.001-.0012-.0014l-1.2591-1.5144c-2.4966-.1002-4.72724-1.2446-6.15545-3.0113-.22465-.2779-.22204-.6757.00625-.9506l.92999-1.12c.14249-.1716.35396-.2709.57701-.2709 3.7758 0 6.75-2.8425 6.75-6.25 0-.92866-.2206-1.80308-.6193-2.59158-.1311-.25929-.1007-.57098.0782-.79999z"/><path d="m6.25 9c0-.41421.33579-.75.75-.75h5c.4142 0 .75.33579.75.75s-.3358.75-.75.75h-5c-.41421 0-.75-.33579-.75-.75z"/></g></svg>