<svg height="512pt" viewBox="0 -53 512 512" width="512pt" xmlns="http://www.w3.org/2000/svg"><path d="m504.542969 343.691406h-18.921875v-77.878906c14.804687-15.4375 23.695312-35.140625 23.695312-56.582031 0-21.441407-8.890625-41.144531-23.695312-56.582031v-74.785157c0-20.675781-16.722656-37.5-37.277344-37.5h-200.304688c-25.835937-24.738281-63.527343-40.363281-105.445312-40.363281-27.710938 0-54.527344 6.8125-77.542969 19.703125-3.601562 2.015625-4.894531 6.582031-2.890625 10.199219 2.003906 3.621094 6.542969 4.921875 10.140625 2.90625 20.804688-11.652344 45.113281-17.808594 70.292969-17.808594 69.472656 0 125.992188 46.929688 125.992188 104.613281 0 29.761719-15.347657 58.167969-42.132813 78.039063-3.183594 1.902344-4.527344 5.917968-3.039063 9.40625l16.367188 38.320312c.515625 1.203125-.125 2.128906-.257812 2.300782-.320313.414062-.523438.382812-.609376.371093-21.320312-3.335937-37.808593-10.203125-48.527343-15.867187 5.523437-1.695313 10.949219-3.683594 16.253906-5.984375 3.78125-1.636719 5.527344-6.050781 3.898437-9.855469-1.628906-3.804688-6.015624-5.5625-9.796874-3.917969-17.816407 7.71875-37.925782 11.800781-58.148438 11.800781-69.472656 0-125.996094-46.929687-125.996094-104.613281 0-26.089843 11.664063-51.09375 32.84375-70.398437 3.050782-2.78125 3.285156-7.527344.519532-10.597656-2.765626-3.066407-7.480469-3.300782-10.53125-.519532-24.339844 22.1875-37.742188 51.140625-37.742188 81.515625 0 25.050781 9.125 48.320313 24.691406 67.554688v156.523437h-18.921875c-4.117187 0-7.457031 3.355469-7.457031 7.5v9.679688c0 24.757812 20.027344 44.902344 44.640625 44.902344h90.878906c4.117188 0 7.457031-3.359376 7.457031-7.5 0-4.144532-3.339843-7.5-7.457031-7.5h-90.878906c-16.390625 0-29.726563-13.414063-29.726563-29.902344v-2.179688h179.851563c3.285156 12.121094 14.320313 21.058594 27.394531 21.058594h67.679688c13.074218 0 24.109375-8.9375 27.394531-21.058594h179.851563v2.179688c0 16.488281-13.335938 29.902344-29.726563 29.902344h-302.015625c-4.117188 0-7.453125 3.355468-7.453125 7.5 0 4.140624 3.335937 7.5 7.453125 7.5h302.015625c24.613281 0 44.640625-20.144532 44.640625-44.902344v-9.679688c0-4.144531-3.339844-7.5-7.457031-7.5zm-243.140625-288.324218h186.941406c12.332031 0 22.367188 10.09375 22.367188 22.5v62.054687c-7.347657-5.132813-15.527344-9.429687-24.332032-12.730469v-35.691406c0-4.144531-3.335937-7.5-7.453125-7.5h-161.800781c-3.753906-10.195312-9.078125-19.808594-15.722656-28.632812zm-195.78125 288.324218h-24.332032v-141.027344c7.320313 6.433594 15.484376 12.171876 24.332032 17.089844zm224.21875 21.0625h-67.679688c-4.679687 0-8.804687-2.414062-11.222656-6.0625h90.125c-2.417969 3.648438-6.546875 6.0625-11.222656 6.0625zm180.871094-21.0625h-24.332032v-52.425781c8.804688-3.300781 16.984375-7.597656 24.332032-12.730469zm-66.558594-59.875c-14.539063 0-28.988282-2.933594-41.78125-8.476562-3.785156-1.640625-8.171875.113281-9.800782 3.917968-1.628906 3.804688.117188 8.214844 3.898438 9.855469 2.445312 1.058594 4.925781 2.023438 7.433594 2.914063-7.140625 3.339844-16.773438 6.867187-28.578125 8.921875l11.488281-26.902344c1.453125-3.398437.207031-7.296875-2.8125-9.25-19.132812-14.167969-30.097656-34.398437-30.097656-55.566406 0-9.273438 2.039062-18.320313 6.0625-26.894531 1.757812-3.742188.164062-8.214844-3.5625-9.980469-3.722656-1.769531-8.167969-.167969-9.925782 3.578125-4.96875 10.589844-7.488281 21.792968-7.488281 33.296875 0 24.3125 11.53125 47.429687 31.835938 64.25l-9.695313 22.703125c-2.097656 4.914062-1.386718 10.574218 1.851563 14.773437 2.628906 3.40625 6.46875 5.308594 10.558593 5.308594.6875 0 1.382813-.054687 2.078126-.164063 25.726562-4.023437 42.804687-14.289062 49.269531-18.777343 6.292969.988281 12.722656 1.492187 19.265625 1.492187 9.445312 0 18.601562-1.074218 27.316406-3.074218v47.949218h-350.9375v-116.710937c18.738281 7.835937 39.804688 12.25 62.0625 12.25 9.171875 0 18.167969-.738281 26.964844-2.179688 7.78125 5.550781 31.074218 20.191407 67.0625 25.824219.808594.125 1.609375.1875 2.402344.1875 4.753906 0 9.222656-2.214844 12.285156-6.1875 3.816406-4.945312 4.648437-11.617188 2.175781-17.410156l-14.054687-32.917969c28.085937-22.550781 44.070312-53.929687 44.070312-86.929687 0-7.027344-.722656-13.917969-2.101562-20.613282h150.066406v23.710938c-8.710938-1.996094-17.867188-3.070313-27.3125-3.070313-29.324219 0-57.53125 10.527344-77.378906 28.878907-3.03125 2.804687-3.230469 7.550781-.445313 10.597656 2.789063 3.050781 7.503906 3.25 10.535156.445312 17.132813-15.835937 41.65625-24.921875 67.289063-24.921875 49.761718 0 90.25 33.460938 90.25 74.585938s-40.484375 74.585937-90.25 74.585937zm0 0"/><path d="m142.59375 163.097656c20.984375 0 29.039062-13.539062 31.3125-18.585937.640625-1.113281 1.015625-2.398438 1.015625-3.777344 0-4.160156-3.351563-7.53125-7.488281-7.53125-3.210938 0-5.945313 2.042969-7.007813 4.902344-.582031 1.519531-4.433593 9.992187-17.832031 9.992187-13.351562 0-17.222656-8.417968-17.824219-9.976562-1.058593-2.867188-3.792969-4.917969-7.015625-4.917969-4.132812 0-7.484375 3.371094-7.484375 7.53125 0 1.375.371094 2.660156 1.011719 3.769531 2.273438 5.046875 10.324219 18.59375 31.3125 18.59375zm0 0"/><path d="m101.066406 112.4375c0-7.96875-6.445312-14.453125-14.371094-14.453125-7.921874 0-14.371093 6.484375-14.371093 14.453125 0 7.972656 6.449219 14.457031 14.371093 14.457031 7.925782 0 14.371094-6.484375 14.371094-14.457031zm0 0"/><path d="m212.863281 112.4375c0-7.96875-6.449219-14.453125-14.371093-14.453125-7.925782 0-14.371094 6.484375-14.371094 14.453125 0 7.972656 6.445312 14.457031 14.371094 14.457031 7.921874 0 14.371093-6.484375 14.371093-14.457031zm0 0"/><path d="m455.671875 181.074219h-97.480469c-4.117187 0-7.457031 3.355469-7.457031 7.5 0 4.140625 3.339844 7.5 7.457031 7.5h97.480469c4.117187 0 7.457031-3.359375 7.457031-7.5 0-4.144531-3.339844-7.5-7.457031-7.5zm0 0"/><path d="m414.316406 223.433594h-56.125c-4.117187 0-7.457031 3.355468-7.457031 7.5 0 4.140625 3.339844 7.5 7.457031 7.5h56.125c4.121094 0 7.457032-3.359375 7.457032-7.5 0-4.144532-3.335938-7.5-7.457032-7.5zm0 0"/></svg>