<svg id="Layer_1" data-name="Layer 1" xmlns="http://www.w3.org/2000/svg" viewBox="0 0 511.26 512.11"><defs><style>.cls-1{fill:#fcb530;}</style></defs><path class="cls-1" d="M490.67,234.67a21.33,21.33,0,0,1-21.34-21.34A170.83,170.83,0,0,0,298.67,42.67a21.34,21.34,0,1,1,0-42.67C416.43.13,511.87,95.57,512,213.33A21.33,21.33,0,0,1,490.67,234.67Zm-64-21.34a128,128,0,0,0-128-128,21.34,21.34,0,1,0,0,42.67A85.34,85.34,0,0,1,384,213.33a21.34,21.34,0,1,0,42.67,0Zm46.57,259.5,19.41-22.38a66.12,66.12,0,0,0,0-93.37c-.66-.66-52-40.15-52-40.15a66.14,66.14,0,0,0-91.33.13l-40.66,34.26A272.78,272.78,0,0,1,160.79,203.18l34.13-40.53a66.13,66.13,0,0,0,.15-91.35S155.54,20,154.88,19.37a65.75,65.75,0,0,0-92.29-1L38.06,39.72C-106.88,207.87,205.23,517.57,378.92,512A131.29,131.29,0,0,0,473.24,472.83Z" transform="translate(-0.74 0.04)"/></svg>