<svg id="Capa_1" data-name="Capa 1" xmlns="http://www.w3.org/2000/svg" viewBox="0 0 341.35 512"><defs><style>.cls-1{fill:#fcb530;}</style></defs><path class="cls-1" d="M244.32,299.05a174.72,174.72,0,0,0-159,176.32V480a32,32,0,0,0,32,32h0a32,32,0,0,0,32-32v-5.91a109.93,109.93,0,0,1,96-110.93,106.79,106.79,0,0,1,116.81,95.73,104.11,104.11,0,0,1,.52,10.44V480a32,32,0,0,0,32,32h0a32,32,0,0,0,32-32V469.33a170.86,170.86,0,0,0-171-170.67Q250,298.68,244.32,299.05Z" transform="translate(-85.33)"/><path class="cls-1" d="M256,256A128,128,0,1,0,128,128,128,128,0,0,0,256,256Zm0-192a64,64,0,1,1-64,64A64,64,0,0,1,256,64Z" transform="translate(-85.33)"/></svg>